<svg xmlns="http://www.w3.org/2000/svg" viewBox="0 0 64 64">
  <rect width="64" height="64" rx="14" fill="#18171c"/>
  <path fill="#a78bfa" d="M21.563 6.397a16.28 16.28 0 0 1 8.123-1.107c3.555.408 6.723 1.92 9.504 4.533.082.076.178.102.286.077 3.755-.923 7.365-.598 10.829.976l.168.08.411.203c3.619 1.875 6.213 4.72 7.78 8.528.742 1.81 1.115 3.7 1.123 5.67a15.08 15.08 0 0 1-.48 4.35.445.445 0 0 0 .107.413 15.952 15.952 0 0 1 4.208 7.71c1.027 5.07-.027 9.64-3.155 13.706l-.485.587a16.168 16.168 0 0 1-7.824 4.936.432.432 0 0 0-.288.272c-.68 1.963-1.363 3.637-2.632 5.312-3.197 4.219-7.899 6.565-13.195 6.536-4.221-.021-7.963-1.565-11.227-4.63a.387.387 0 0 0-.373-.085c-1.381.445-2.773.51-4.277.493a15.797 15.797 0 0 1-6.92-1.659 16.155 16.155 0 0 1-5.722-4.75c-.541-.717-1.077-1.392-1.47-2.19a20.64 20.64 0 0 1-1.32-3.42 16.293 16.293 0 0 1-.045-8.17.443.443 0 0 0 .021-.197.307.307 0 0 0-.099-.17A15.888 15.888 0 0 1 .93 38.52a13.856 13.856 0 0 1-.888-4.237 18.44 18.44 0 0 1 .501-5.685c1.2-3.957 3.49-7.061 6.872-9.315.752-.501 1.467-.89 2.139-1.168.763-.32 1.528-.587 2.296-.811.11-.03.187-.108.232-.232a16.043 16.043 0 0 1 2.941-5.747c1.813-2.256 3.992-3.904 6.537-4.942z"/>
  <path fill="#18171c" d="M19.42 27.33a2.26 2.26 0 0 0-3.928 2.245l4.517 7.906-4.501 7.595a2.264 2.264 0 0 0 3.893 2.304l5.173-8.725a2.264 2.264 0 0 0 .019-2.277L19.42 27.33zm14.523 16.64a2.264 2.264 0 0 0 0 4.52h12.928a2.264 2.264 0 0 0 0-4.523H33.943z"/>
</svg>
